<svg width="115" height="62" xmlns="http://www.w3.org/2000/svg">
 <g>
  <title>Layer 1</title>
  <g id="svg_1">
   <g id="svg_3">
    <path fill="#FFFFFF" d="m4.800003,58.900002c-0.399994,0 -0.699997,-0.099998 -1,-0.400002c-0.599991,-0.599998 -0.699997,-1.5 -0.100006,-2.099998l39.400009,-43.299999c0.5,-0.600002 1.399994,-0.700001 2,-0.200001l9.399994,7.300003c0.700012,0.499992 0.800003,1.399994 0.300003,2.099998c-0.5,0.699997 -1.5,0.799995 -2.100006,0.299995l-8.299988,-6.399998l-38.5,42.200001c-0.300003,0.300003 -0.699997,0.5 -1.100006,0.5z" id="svg_4"/>
   </g>
   <g id="svg_14">
    <g id="svg_15">
     <path fill="#FFFFFF" d="m107.400009,55c-0.5,0 -0.900009,-0.199997 -1.199997,-0.599998l-2.600006,-3.599998c-0.5,-0.700005 -0.300003,-1.599998 0.300003,-2.099998c0.699997,-0.5 1.599991,-0.300003 2.099991,0.299995l2.600006,3.599998c0.5,0.700005 0.300003,1.600006 -0.300003,2.100006c-0.300003,0.199997 -0.599991,0.299995 -0.899994,0.299995z" id="svg_16"/>
    </g>
    <g id="svg_17">
     <path fill="#FFFFFF" d="m100.100006,44.900002c-0.5,0 -0.899994,-0.199997 -1.199997,-0.599998l-4.600006,-6.400002c-0.5,-0.699997 -0.300003,-1.599998 0.300003,-2.099998c0.699997,-0.5 1.600006,-0.300003 2.100006,0.299995l4.599991,6.400002c0.5,0.700005 0.300003,1.599998 -0.300003,2.099998c-0.199997,0.200005 -0.5,0.300003 -0.899994,0.300003zm-9.199997,-12.699997c-0.5,0 -0.900009,-0.200005 -1.199997,-0.600006l-4.600006,-6.399994c-0.5,-0.700005 -0.300003,-1.600006 0.300003,-2.100006c0.699997,-0.5 1.599991,-0.299995 2.099991,0.300003l4.600006,6.400002c0.5,0.699997 0.300003,1.599998 -0.300003,2.099998c-0.300003,0.199997 -0.599991,0.300003 -0.899994,0.300003zm-9.300003,-12.800003c-0.5,0 -0.900009,-0.199997 -1.199997,-0.599998l-4.600006,-6.400002c-0.5,-0.700001 -0.300003,-1.599998 0.300003,-2.099998c0.699997,-0.5 1.599991,-0.300003 2.100006,0.299999l4.599991,6.399998c0.5,0.699997 0.300003,1.599998 -0.300003,2.099998c-0.299988,0.200005 -0.599991,0.300003 -0.899994,0.300003z" id="svg_18"/>
    </g>
    <g id="svg_19">
     <path fill="#FFFFFF" d="m72.300003,6.700001c-0.5,0 -0.899994,-0.200001 -1.199997,-0.599998l-1.5,-2.100002l-1.600006,2c-0.5,0.600002 -1.5,0.700001 -2.099991,0.200001c-0.600006,-0.5 -0.699997,-1.5 -0.200012,-2.099998l2.800003,-3.5c0.300003,-0.400002 0.700012,-0.600002 1.199997,-0.600002c0.500015,0 0.900009,0.200001 1.200012,0.600002l2.599991,3.599998c0.5,0.700001 0.300003,1.600002 -0.299988,2.100002c-0.300003,0.299999 -0.600006,0.399998 -0.900009,0.399998z" id="svg_20"/>
    </g>
    <g id="svg_21">
     <path fill="#FFFFFF" d="m59.900009,15.100002c-0.300003,0 -0.699997,-0.100002 -0.900009,-0.299999c-0.599991,-0.5 -0.699997,-1.5 -0.199997,-2.100002l3.5,-4.299999c0.5,-0.599998 1.5,-0.700001 2.100006,-0.200001c0.599991,0.5 0.699997,1.5 0.199997,2.100002l-3.5,4.299999c-0.400009,0.299999 -0.800003,0.5 -1.199997,0.5z" id="svg_22"/>
    </g>
    <g id="svg_23">
     <path fill="#FFFFFF" d="m53.600006,22.900002c-0.300003,0 -0.699997,-0.099998 -0.900009,-0.300003c-0.599991,-0.5 -0.699997,-1.5 -0.199997,-2.099998l2.800003,-3.5c0.5,-0.599998 1.5,-0.699997 2.100006,-0.199997c0.599991,0.5 0.699997,1.5 0.199997,2.099998l-2.800003,3.5c-0.399994,0.299995 -0.800003,0.5 -1.199997,0.5z" id="svg_24"/>
    </g>
   </g>
   <g id="svg_25">
    <circle fill="#FFFFFF" cx="4.900006" cy="57.200002" r="4.4" id="svg_26"/>
    <path fill="#FFFFFF" d="m4.900009,62.099998c-2.699997,0 -4.900009,-2.199997 -4.900009,-4.899994c0,-2.700005 2.200012,-4.900002 4.900009,-4.900002c2.699997,0 4.899994,2.199997 4.899994,4.900002c0,2.699997 -2.199997,4.899994 -4.899994,4.899994zm0,-8.799995c-2.200012,0 -3.900009,1.799995 -3.900009,3.900002c0,2.199997 1.800003,3.899994 3.900009,3.899994c2.199997,0 3.899994,-1.799995 3.899994,-3.899994c0,-2.200005 -1.699997,-3.900002 -3.899994,-3.900002z" id="svg_27"/>
   </g>
   <g id="svg_28">
    <path fill="#FFFFFF" d="m109.800003,54.5c1.5,0 2.699997,1.200005 2.699997,2.700005s-1.199997,2.699997 -2.699997,2.699997c-1.5,0 -2.699997,-1.199997 -2.699997,-2.699997s1.199997,-2.700005 2.699997,-2.700005m0,-2c-2.599991,0 -4.699997,2.099998 -4.699997,4.700005s2.100006,4.699997 4.699997,4.699997c2.600006,0 4.699997,-2.099998 4.699997,-4.699997s-2.199997,-4.700005 -4.699997,-4.700005l0,0z" id="svg_29"/>
   </g>
  </g>
 </g>
</svg>