<svg width="200" height="250" xmlns="http://www.w3.org/2000/svg">
 <g>
  <title>Layer 1</title>
  <g id="svg_2">
   <ellipse fill="#424242" cx="97.6" cy="86.7" rx="73.9" ry="73.5" id="svg_3"/>
   <path fill="#BDBDBD" d="m97.800003,3.700001c-46.200005,0.099998 -83.800003,36.399998 -83.699989,80.999996c0,17.900009 12,47.199997 36.599983,89.300003c17.400002,29.800003 34.400009,54.700012 35.200012,55.700012l12.5,18.200012l12.399994,-18.200012c0.699997,-1 17.700012,-26.000015 34.900009,-55.900009c24.399994,-42.300003 36.199997,-71.600006 36.099991,-89.5c-0.100006,-44.600014 -37.800003,-80.800007 -84,-80.600002zm0.399994,156.499996c-40.599998,0.100006 -73.599998,-32.699997 -73.699997,-73.300003s32.699997,-73.599995 73.300003,-73.699986c40.599991,-0.100002 73.599991,32.700001 73.699997,73.299992c0.100006,40.699997 -32.699997,73.600006 -73.300003,73.699997z" id="svg_4"/>
   <g id="svg_5">
    <g id="svg_6">
     <path fill="#8BC34A" d="m98.300003,49c0.5,4.599998 4.399994,8.099998 9.199997,8.099998c5.100006,0 9.199997,-4.099998 9.199997,-9.199997c0,-5.099998 -4.099991,-9.200005 -9.199997,-9.200005c-4.800003,0 -8.699997,3.600006 -9.199997,8.300003c0,0.400002 0.099991,0.800003 0.099991,1.099998c-0.099991,0.300003 -0.099991,0.599998 -0.099991,0.900002z" id="svg_7"/>
     <path fill="#8BC34A" d="m107.5,57.5c-0.899994,0 -2.199997,0.199997 -2.199997,0.199997c0,0 0,0 0,0c-1.800003,0.400002 -3.5,1.300003 -4.800003,2.600006c0.399994,0 0.800003,0.099998 1.300003,0.099998c3.199997,0 6.599991,-1.200005 7.5,-1.5c0,0 1,-0.5 0.800003,-1c-0.100006,0 -0.200012,0 -0.300003,0c0,-0.200005 -1.400009,-0.400002 -2.300003,-0.400002z" id="svg_8"/>
     <path fill="#8BC34A" d="m116.5,63.900002c1.5,-1.800003 1.199997,-3.900002 0.300003,-5.200005c-1.199997,-1.599998 -3.5,-1.899994 -5,-0.699997c-0.5,0.400002 -0.900009,0.900002 -1.100006,1.400002c-2.300003,1.299995 -9.899994,3.400002 -16,0.099998c-0.099991,-0.099998 -0.199997,-0.099998 -0.399994,-0.199997c-1.100006,-0.800003 -2.5,-1.400002 -3.800003,-1.800003c0,0 0,0 0,0c0,0 -1.199997,-0.199997 -2.199997,-0.199997c-1,0 -2.300003,0.199997 -2.300003,0.199997c-1.199997,0.300003 -2.300003,0.800003 -3.300003,1.400002c-0.099991,0.099998 -0.300003,0.099998 -0.399994,0.199997c-4.5,2.800003 -18.300003,11.200005 -8.199997,29.799995c0.699997,1.200012 1.899994,1.900009 3.199997,1.900009c0.599991,0 1.199997,-0.100006 1.699997,-0.400009c0.300003,-0.199997 0.5,-0.299988 0.699997,-0.5l0,31.5l0,2.200012c0,2.299988 1.900009,4.199997 4.199997,4.199997h0c2.300003,0 4.300003,-1.900009 4.300003,-4.199997l0,-29.400009c0,0 0.100006,0 0.100006,0c0.199997,0 0.300003,0 0.5,0l0,9.300003l0,0v20.199997c0,2.300003 1.899994,4.199997 4.199997,4.199997c2.300003,0 4.199997,-1.899994 4.199997,-4.199997v-32.399994l0,-2c0,-0.199997 0,-0.400009 0,-0.600006c0.300003,-0.800003 0.5,-1.699997 0.5,-2.699997v-18c1.5,0.300003 3,0.400002 4.5,0.400002c6.600006,0.099998 12.5,-2.300003 14.300003,-4.5zm-37.699997,18.400002c-1.699997,-4.400002 -1.400009,-7.700005 0,-10.300003v10.300003l0,0z" id="svg_9"/>
     <circle fill="#8BC34A" cx="88.2" cy="47.9" r="9.2" id="svg_10"/>
     <path fill="#8BC34A" d="m126.100006,50.099998c-1.899994,-0.400002 -3.800003,0.900002 -4.199997,2.800003c-0.5,2.799995 -2.800003,10.5 -6.699997,13.699997c-2.900009,1.900002 -8,3.5 -13.400009,3.5c-1.099991,0 -2.099991,-0.099998 -3.199997,-0.199997c0,0 -0.300003,16.999992 -0.300003,17.599998c0,0.600006 0.200012,1.100006 0.200012,1.300003c0,0.199997 0,0.399994 0,0.599991l0,34.300003c0,2.300003 1.899994,4.199997 4.199997,4.199997c2.300003,0 4.199997,-1.899994 4.199997,-4.199997l0,-29.5c0.199997,0 0.300003,0 0.5,0c0,0 0.100006,0 0.100006,0l0,29.400009c0,2.299988 1.899994,4.199997 4.199997,4.199997c2.300003,0 4.199997,-1.900009 4.199997,-4.199997l0,-34.800003c0.800003,-0.400009 0.699997,-1.900009 0.699997,-1.900009l0,-12.599991l2.199997,-1.700005c7.200012,-5.199997 9.700012,-17.199997 10,-18.5c0.5,-1.799995 -0.800003,-3.699997 -2.699997,-4z" id="svg_11"/>
    </g>
   </g>
  </g>
 </g>
</svg>