<svg width="200" height="250" xmlns="http://www.w3.org/2000/svg">
 <g>
  <title>Layer 1</title>
  <g id="svg_60">
   <ellipse fill="#424242" cx="100" cy="86.7" rx="73.5" ry="73.5" id="svg_61"/>
   <path fill="#BDBDBD" d="m99.800003,3.700001c-46.200005,0.099998 -83.800003,36.399998 -83.700005,80.999996c0,17.900009 12,47.199997 36.599998,89.300003c17.400002,29.800003 34.400009,54.700012 35.199997,55.700012l12.5,18.199982l12.400009,-18.199982c0.699997,-1 17.699997,-26.000015 34.899994,-55.900009c24.400009,-42.300003 36.199997,-71.600006 36.100006,-89.5c-0.100006,-44.600006 -37.800003,-80.800003 -84,-80.600002l0,0zm0.399994,156.499996c-40.599998,0.100006 -73.599998,-32.699997 -73.699997,-73.300003s32.699997,-73.599995 73.300003,-73.699993c40.599991,-0.100002 73.599991,32.700001 73.699997,73.299999c0.100006,40.699997 -32.699997,73.600006 -73.300003,73.699997z" id="svg_62"/>
   <g id="svg_63">
    <path fill="#8BC34A" d="m85.399994,50.599998c4,-0.800003 6.600006,-4.699997 5.800003,-8.699997c-0.800003,-4 -4.600006,-6.600006 -8.600006,-5.800003c-4,0.800003 -6.599998,4.599998 -5.799995,8.599998c0.700005,4.100006 4.599998,6.700005 8.599998,5.900002z" id="svg_64"/>
    <g id="svg_65">
     <path fill="#8BC34A" d="m154.5,99.300003c-1.199997,-2.199997 -3.600006,-3.699997 -4.800003,-1.5l-2.300003,3.100006c-1.199997,2.199997 -1.599991,3.199997 -4.099991,3.199997h-3.400009c-2.5,0 -6,1.399994 -7.799988,3.099991l-6.5,6.100006c-0.800003,0.699997 -1.800003,1.199997 -2.900009,1.600006c0.199997,-0.300003 0.199997,-0.700012 0.100006,-1.100006l-10.400009,-67.400002l0,-0.099998c-0.299988,-0.900002 -1.299988,-1.300003 -2.099991,-1c-0.800003,0.299995 -1.199997,1.099998 -1.100006,2l3.199997,20.799995l-10.5,-0.599998l-5.399994,-11.5c-0.899994,-1.900002 -3.399994,-3.400002 -5.5,-3.299995l-6.800003,0.599998c-0.599991,0 -1.199997,0.199997 -1.699997,0.5c-1.5,-0.200005 -3.199997,0.400002 -4.5,1.099998c0,-0.099998 -0.100006,-0.099998 -0.100006,-0.199997c0.900009,-1.200005 1.200012,-2.700005 0.900009,-4.300003c-0.600006,-3 -3.5,-4.900002 -6.400002,-4.300003c-3,0.599998 -4.900002,3.5 -4.300003,6.400002c0.199997,1.199997 0.800003,2.199997 1.700005,3c-0.400002,0.599998 -0.600006,1.400002 -0.5,2.099998c0.699997,3 1.399994,7.099998 1.099998,9.200005c-0.599998,3.599998 -3.200005,12.299995 1.5,12.399994c2.699997,0.100006 5.499992,-0.599998 7.499992,-1.099998l-1.599991,36.799995c0,0.400009 0.099991,0.700012 0.099991,1c0.100006,0.400009 0.200012,0.800003 0.400009,1.200012l-2.400002,1.899994c-1.900002,1.600006 -5.400002,2.199997 -7.700005,1.300003l-6.199997,-2.300003c-2.300003,-0.899994 -5.199997,0.199997 -6.300003,2.399994l-1.399994,2.800003c-1.200005,2.199997 -0.100006,4 2.399994,4h92.699997c2.5,0 3.400009,-1.399994 3.900009,-3.899994l2.399994,-8c0.5,-2.400009 2.5,-6.600006 1.399994,-8.800003l-2.599991,-7.199997zm-80.099998,-44.100006c-1.300003,0.199997 -2.5,-0.199997 -3.400002,-1c0,0 -0.099998,-0.099998 -0.099998,-0.099998c0,0 0,-0.099998 -0.099998,-0.099998c-0.200005,-0.200005 -0.300003,-0.400002 -0.5,-0.600006c-0.5,-0.799995 -0.599998,-1.699997 -0.300003,-2.699997c0.300003,-0.900002 0.900002,-1.699997 1.700005,-2.199997c0.699997,-0.400002 1.5,-0.5 2.199997,-0.400002c0.800003,0.199997 1.400002,0.599998 1.800003,1.299995c0.299995,0.600006 0.399994,1.200005 0.199997,1.800003c-0.199997,0.599998 -0.599998,1.199997 -1.199997,1.5c-1,0.599998 -2.300003,0.300003 -2.800003,-0.599998c-0.5,-0.800003 -0.199997,-1.900002 0.599998,-2.400002c0.700005,-0.400002 1.599998,-0.199997 2.099998,0.5c0.400002,0.599998 0.100006,1.400002 -0.5,1.800003c0,0 -0.099998,0 -0.099998,0c0,0 0,0 0.099998,0c0,0 0.100006,0 0.100006,-0.100006c0.399994,-0.199997 0.599998,-0.5 0.699997,-0.899994c0.099998,-0.400002 0.099998,-0.800003 -0.099998,-1.100006c-0.300003,-0.400002 -0.700005,-0.699997 -1.200005,-0.799995c-0.5,-0.100006 -1.099998,0 -1.5,0.299995c-0.599998,0.400002 -1.099998,0.900002 -1.199997,1.600006c-0.199997,0.699997 -0.099998,1.299995 0.199997,1.899994c0.400002,0.700005 1.200005,1.300003 2,1.400002c0.900002,0.200005 1.800003,0 2.600006,-0.400002c0.599998,-0.399994 1.199997,-0.899994 1.499992,-1.5c-0.199997,1.400009 -1.299995,2.500008 -2.799995,2.800003zm4.400002,1.400002c0,-0.099998 -0.100006,-0.199997 -0.100006,-0.300003c0.700012,-0.399994 1.5,-0.699997 2.200012,-0.899994c-0.300003,0.599998 -0.5,1.199997 -0.5,1.799995l-0.300003,7.700005l-1.300003,-8.300003zm13.699997,58.299995l-3.899994,-1.300003c-0.100006,0 -0.200012,0 -0.300003,-0.099991l1.199997,-28.200012l13.899994,26.700012c0.300003,0.699997 0.800003,1.299988 1.400009,1.799988l-3.800003,1.200012c-2.300003,0.800003 -6.100006,0.800003 -8.5,-0.100006zm22.300003,-1.299988c-0.800003,-0.300003 -1.699997,-0.5 -2.600006,-0.600006c0.900009,-1.099991 1.300003,-2.599991 1,-4.099991c-0.099991,-0.400009 -0.199997,-0.699997 -0.299988,-1.100006l-17.400009,-34.099998l0.100006,-4.399994l1.399994,3.199997c1.100006,2 3.100006,1.900002 3.100006,1.900002l12.399994,0.699997c0.199997,0 0.5,0 0.699997,-0.099998c0.100006,0 0.200012,-0.099998 0.300003,-0.099998l6.100006,39.699997c0,0 0,0.100006 0,0.100006c0.099991,0.199997 0.199997,0.300003 0.300003,0.5c-0.600006,0 -1.200012,-0.100006 -1.700012,-0.300003l-3.399994,-1.300003z" id="svg_66"/>
    </g>
   </g>
  </g>
 </g>
</svg>