<svg width="302" height="169" xmlns="http://www.w3.org/2000/svg">
 <g>
  <title>Layer 1</title>
  <g id="svg_2">
   <g id="svg_3">
    <path id="svg_4" d="m45.700001,93c-0.400002,0 -0.700001,-0.099998 -1,-0.400002c-0.600002,-0.599998 -0.700001,-1.5 -0.100002,-2.099998l39.400002,-43.299999c0.5,-0.600002 1.400002,-0.700001 2,-0.200001l9.400002,7.299999c0.699997,0.5 0.799995,1.400002 0.299995,2.100002c-0.5,0.699997 -1.5,0.799999 -2.099998,0.299999l-8.299995,-6.400002l-38.500004,42.200001c-0.299999,0.300003 -0.700001,0.5 -1.099998,0.5z" fill="#FFFFFF"/>
   </g>
   <g id="svg_5">
    <path id="svg_6" d="m149.800003,52.400002c0.199997,-0.200001 0.399994,-0.300003 0.599991,-0.300003c0.300003,0 0.5,0 0.700012,0.200001c0.199997,0.100002 0.399994,0.299999 0.5,0.600002l0.5,1.299999l4.099991,12.100002l4.199997,-12.100002l0.400009,-1.200001c0.099991,-0.299999 0.199997,-0.5 0.5,-0.599998c0.199997,-0.100002 0.5,-0.200001 0.699997,-0.100002c0.300003,0 0.5,0.100002 0.600006,0.299999c0.199997,0.200001 0.299988,0.400002 0.299988,0.700001v14.399998c0,0.200005 -0.099991,0.400002 -0.199997,0.5c-0.099991,0.100006 -0.300003,0.200005 -0.5,0.200005s-0.300003,-0.099998 -0.5,-0.200005c-0.099991,-0.099998 -0.199997,-0.299995 -0.199997,-0.5v-13.499996l-4.399994,13.100002c-0.200012,0.5 -0.5,0.799995 -0.900009,0.799995c-0.399994,0 -0.699997,-0.299995 -0.899994,-0.799995l-4.400009,-13.100002v13.200001c0,0.199997 -0.099991,0.400002 -0.199997,0.5c-0.099991,0.099998 -0.300003,0.199997 -0.399994,0.199997c-0.199997,0 -0.300003,-0.099998 -0.5,-0.199997c-0.100006,-0.099998 -0.199997,-0.300003 -0.199997,-0.5v-14.300003c-0.100006,-0.299999 0,-0.599998 0.199997,-0.699997z" fill="#FFFFFF"/>
    <path id="svg_7" d="m178.399994,54.5c1.099991,1.5 1.699997,3.299999 1.699997,5.599998s-0.600006,4.099998 -1.699997,5.5c-1.300003,1.700005 -3,2.5 -5.300003,2.5c-2.300003,0 -4.100006,-0.799995 -5.300003,-2.5c-1.099991,-1.400002 -1.599991,-3.299999 -1.599991,-5.5s0.5,-4.099998 1.599991,-5.599998c1.300003,-1.599998 3,-2.5 5.300003,-2.5c2.200012,0.099998 4.000015,0.900002 5.300003,2.5zm-9.699997,0.799999c-0.899994,1.200001 -1.300003,2.799999 -1.300003,4.799999c0,2 0.400009,3.600002 1.300003,4.800003c1,1.400002 2.400009,2.099998 4.300003,2.099998c1.899994,0 3.300003,-0.699997 4.300003,-2.099998c0.899994,-1.200001 1.300003,-2.800003 1.300003,-4.800003c0,-2 -0.400009,-3.599998 -1.300003,-4.799999c-1,-1.399998 -2.400009,-2.099998 -4.300003,-2.099998c-1.800003,0 -3.300003,0.700001 -4.300003,2.099998z" fill="#FFFFFF"/>
    <path id="svg_8" d="m183.5,52.299999c0.100006,-0.099998 0.300003,-0.200001 0.5,-0.200001c0.199997,0 0.300003,0 0.399994,0.100002c0.100006,0.099998 0.200012,0.299999 0.200012,0.5v9.700001c0,1.199997 0.299988,2.299995 1,3.099998c0.799988,0.900002 1.899994,1.400002 3.299988,1.400002s2.5,-0.5 3.300003,-1.400002c0.699997,-0.800003 1,-1.799999 1,-3.099998v-9.800003c0,-0.199997 0.100006,-0.299999 0.199997,-0.399998c0.100006,-0.100002 0.300003,-0.100002 0.5,-0.100002c0.200012,0 0.300003,0.100002 0.400009,0.200001c0.099991,0.100002 0.199997,0.200001 0.199997,0.400002v9.799999c0,1.599998 -0.399994,2.900002 -1.300003,3.900002c-1,1.199997 -2.399994,1.799995 -4.300003,1.799995c-1.799988,0 -3.299988,-0.599998 -4.299988,-1.799995c-0.900009,-1 -1.300003,-2.300003 -1.300003,-3.900002v-9.700001c0,-0.200001 0,-0.399998 0.199997,-0.5z" fill="#FFFFFF"/>
    <path id="svg_9" d="m199.100006,52.099998c0.400009,-0.099998 0.699997,0.100002 1,0.400002l0.699997,1l7.300003,12.199997v-13.099998c0,-0.199997 0.100006,-0.299999 0.199997,-0.399998c0.100006,-0.100002 0.300003,-0.100002 0.5,-0.100002c0.200012,0 0.300003,0 0.5,0.100002c0.100006,0.099998 0.200012,0.200001 0.200012,0.399998v14.599998c0,0.5 -0.200012,0.800003 -0.600006,0.900002c-0.399994,0.099998 -0.600006,0 -0.800003,-0.299995l-1.199997,-1.700005l-7.100006,-11.699997v12.900002c0,0.199997 -0.099991,0.399994 -0.199997,0.599998c-0.099991,0.099998 -0.300003,0.199997 -0.5,0.199997c-0.199997,0 -0.300003,-0.099998 -0.5,-0.199997c-0.099991,-0.099998 -0.199997,-0.300003 -0.199997,-0.5v-14.5c0.099991,-0.5 0.299988,-0.800003 0.699997,-0.800003z" fill="#FFFFFF"/>
    <path id="svg_10" d="m222.800003,52.599998c0.099991,0.100002 0.199997,0.300003 0.199997,0.400002c0,0.200001 -0.100006,0.299999 -0.199997,0.400002c-0.100006,0.099998 -0.300003,0.199997 -0.5,0.199997h-4.300003v13.900002c0,0.199997 -0.100006,0.400002 -0.199997,0.5c-0.100006,0.099998 -0.300003,0.199997 -0.400009,0.199997c-0.199997,0 -0.299988,-0.099998 -0.5,-0.199997c-0.099991,-0.099998 -0.199997,-0.300003 -0.199997,-0.5v-13.900002h-4.399994c-0.300003,0 -0.5,-0.199997 -0.5,-0.599998s0.199997,-0.599998 0.5,-0.599998h9.899994c0.300003,0 0.400009,0.099998 0.600006,0.199997z" fill="#FFFFFF"/>
    <path id="svg_11" d="m230,52.299999c0.199997,-0.200001 0.399994,-0.200001 0.699997,-0.200001c0.199997,0 0.5,0.100002 0.699997,0.200001c0.200012,0.200001 0.400009,0.400002 0.5,0.700001l5.200012,14.099998c0.099991,0.200005 0.099991,0.400002 0,0.599998c-0.100006,0.200005 -0.200012,0.300003 -0.400009,0.300003c-0.199997,0.099998 -0.300003,0 -0.5,0c-0.199997,-0.099998 -0.300003,-0.300003 -0.399994,-0.5l-1.800003,-4.900002h-6.699997l-1.800003,4.900002c-0.100006,0.199997 -0.199997,0.400002 -0.399994,0.5c-0.200012,0.099998 -0.300003,0.099998 -0.5,0c-0.200012,-0.099998 -0.300003,-0.199997 -0.400009,-0.300003c-0.099991,-0.199997 -0.099991,-0.399994 0,-0.599998l5.199997,-14.099998c0.200012,-0.299999 0.400009,-0.5 0.600006,-0.700001zm3.600006,9.299999l-2.900009,-7.899998h-0.099991l-2.900009,7.899998h5.900009l0,0z" fill="#FFFFFF"/>
    <path id="svg_12" d="m240,52.200001c0.100006,-0.100002 0.300003,-0.200001 0.5,-0.200001c0.199997,0 0.300003,0.099998 0.399994,0.200001c0.100006,0.099998 0.200012,0.299999 0.200012,0.5v14.700001c0,0.199997 -0.100006,0.400002 -0.200012,0.5c-0.099991,0.099998 -0.299988,0.199997 -0.399994,0.199997c-0.199997,0 -0.300003,-0.099998 -0.5,-0.199997c-0.100006,-0.099998 -0.199997,-0.300003 -0.199997,-0.5v-14.600002c0,-0.299999 0.099991,-0.399998 0.199997,-0.599998z" fill="#FFFFFF"/>
    <path id="svg_13" d="m246,52.099998c0.399994,-0.099998 0.699997,0.100002 1,0.400002l0.699997,1l7.300003,12.199997v-13.099998c0,-0.199997 0.100006,-0.299999 0.199997,-0.399998c0.100006,-0.100002 0.300003,-0.100002 0.5,-0.100002s0.300003,0 0.500015,0.100002c0.099976,0.099998 0.199982,0.200001 0.199982,0.399998v14.599998c0,0.5 -0.199982,0.800003 -0.599991,0.900002c-0.400009,0.099998 -0.600006,0 -0.800003,-0.299995l-1.199997,-1.700005l-7.100006,-11.699997v12.900002c0,0.199997 -0.099991,0.399994 -0.199997,0.599998c-0.100006,0.099998 -0.300003,0.199997 -0.5,0.199997c-0.199997,0 -0.300003,-0.099998 -0.5,-0.199997c-0.100006,-0.099998 -0.199997,-0.300003 -0.199997,-0.5v-14.5c0,-0.5 0.300003,-0.800003 0.699997,-0.800003z" fill="#FFFFFF"/>
   </g>
   <g id="svg_14">
    <g id="svg_15">
     <path id="svg_16" d="m148.300003,89.099998c-0.5,0 -0.900009,-0.199997 -1.199997,-0.599998l-2.600006,-3.599998c-0.5,-0.700005 -0.300003,-1.599998 0.300003,-2.099998c0.699997,-0.5 1.599991,-0.300003 2.099991,0.299995l2.600006,3.599998c0.5,0.700005 0.300003,1.600006 -0.300003,2.100006c-0.300003,0.199997 -0.599991,0.299995 -0.899994,0.299995z" fill="#FFFFFF"/>
    </g>
    <g id="svg_17">
     <path id="svg_18" d="m141,79c-0.5,0 -0.899994,-0.199997 -1.199997,-0.599998l-4.600006,-6.400002c-0.5,-0.699997 -0.300003,-1.599998 0.300003,-2.099998c0.699997,-0.5 1.600006,-0.300003 2.100006,0.299995l4.599991,6.400002c0.5,0.700005 0.300003,1.599998 -0.300003,2.099998c-0.199997,0.200005 -0.5,0.300003 -0.899994,0.300003zm-9.199997,-12.699997c-0.5,0 -0.900009,-0.200005 -1.199997,-0.600006l-4.600006,-6.399998c-0.5,-0.700001 -0.300003,-1.599998 0.300003,-2.099998c0.699997,-0.5 1.599998,-0.299999 2.099991,0.299999l4.600006,6.400002c0.5,0.699997 0.300003,1.599998 -0.300003,2.099998c-0.300003,0.199997 -0.599991,0.300003 -0.899994,0.300003zm-9.300003,-12.800003c-0.5,0 -0.900002,-0.200001 -1.199997,-0.599998l-4.600006,-6.400002c-0.5,-0.700001 -0.299995,-1.599998 0.300003,-2.099998c0.699997,-0.5 1.599998,-0.300003 2.099998,0.299999l4.599998,6.399998c0.5,0.700001 0.300003,1.600002 -0.299995,2.100002c-0.300003,0.200001 -0.599998,0.299999 -0.900002,0.299999z" fill="#FFFFFF"/>
    </g>
    <g id="svg_19">
     <path id="svg_20" d="m113.199997,40.799999c-0.5,0 -0.899994,-0.200001 -1.199997,-0.599998l-1.5,-2.100002l-1.599998,2c-0.5,0.600002 -1.5,0.700001 -2.099998,0.200001c-0.600006,-0.5 -0.700005,-1.5 -0.200005,-2.099998l2.800003,-3.5c0.299995,-0.400002 0.699997,-0.600002 1.199997,-0.600002c0.5,0 0.900002,0.200001 1.200005,0.600002l2.599998,3.599998c0.5,0.700001 0.299995,1.600002 -0.300003,2.100002c-0.299995,0.299999 -0.599998,0.399998 -0.900002,0.399998z" fill="#FFFFFF"/>
    </g>
    <g id="svg_21">
     <path id="svg_22" d="m100.800003,49.200001c-0.300003,0 -0.700005,-0.100002 -0.900002,-0.299999c-0.599998,-0.5 -0.700005,-1.5 -0.200005,-2.100002l3.5,-4.299999c0.5,-0.599998 1.5,-0.700001 2.100006,-0.200001c0.599998,0.5 0.699997,1.5 0.199997,2.100002l-3.5,4.299999c-0.400002,0.299999 -0.800003,0.5 -1.199997,0.5z" fill="#FFFFFF"/>
    </g>
    <g id="svg_23">
     <path id="svg_24" d="m94.5,57c-0.300003,0 -0.699997,-0.099998 -0.900002,-0.299999c-0.599998,-0.5 -0.699997,-1.5 -0.199997,-2.100002l2.799995,-3.5c0.5,-0.599998 1.5,-0.699997 2.100006,-0.199997c0.599998,0.5 0.699997,1.5 0.199997,2.099998l-2.800003,3.5c-0.399994,0.299999 -0.799995,0.5 -1.199997,0.5z" fill="#FFFFFF"/>
    </g>
   </g>
   <g id="svg_25">
    <circle id="svg_26" r="4.4" cy="91.3" cx="45.8" fill="#FFFFFF"/>
    <path id="svg_27" d="m45.799999,96.199997c-2.700001,0 -4.899998,-2.199997 -4.899998,-4.899994c0,-2.700005 2.199997,-4.900002 4.899998,-4.900002c2.700001,0 4.900002,2.199997 4.900002,4.900002c0,2.699997 -2.200001,4.899994 -4.900002,4.899994zm0,-8.799995c-2.200001,0 -3.899998,1.799995 -3.899998,3.900002c0,2.199997 1.799999,3.899994 3.899998,3.899994c2.200001,0 3.900002,-1.799995 3.900002,-3.899994c0,-2.200005 -1.700001,-3.900002 -3.900002,-3.900002z" fill="#FFFFFF"/>
   </g>
   <g id="svg_28">
    <path id="svg_29" d="m150.699997,88.599998c1.5,0 2.699997,1.200005 2.699997,2.700005s-1.199997,2.699997 -2.699997,2.699997c-1.5,0 -2.699997,-1.199997 -2.699997,-2.699997s1.199997,-2.700005 2.699997,-2.700005m0,-2c-2.599991,0 -4.699997,2.099998 -4.699997,4.700005s2.100006,4.699997 4.699997,4.699997c2.600006,0 4.699997,-2.099998 4.699997,-4.699997s-2.199997,-4.700005 -4.699997,-4.700005l0,0z" fill="#FFFFFF"/>
   </g>
   <g id="svg_30">
    <path id="svg_31" d="m166.800003,72.400002c0.199997,-0.200005 0.399994,-0.300003 0.699997,-0.300003c0.300003,0 0.5,0.099998 0.699997,0.300003c0.199997,0.199997 0.300003,0.5 0.300003,0.799995v9.400002h13.899994v-9.400002c0,-0.299995 0.100006,-0.599998 0.300003,-0.799995c0.199997,-0.200005 0.400009,-0.300003 0.699997,-0.300003c0.300003,0 0.5,0.099998 0.700012,0.300003c0.199997,0.199997 0.299988,0.5 0.299988,0.799995v22.300003c0,0.300003 -0.099991,0.599998 -0.299988,0.800003c-0.200012,0.199997 -0.400009,0.299995 -0.700012,0.299995c-0.299988,0 -0.5,-0.099998 -0.699997,-0.299995c-0.199997,-0.200005 -0.300003,-0.400002 -0.300003,-0.800003v-11.099998h-13.899994v11.099998c0,0.300003 -0.100006,0.599998 -0.300003,0.800003c-0.199997,0.199997 -0.399994,0.299995 -0.699997,0.299995c-0.300003,0 -0.5,-0.099998 -0.699997,-0.299995c-0.199997,-0.200005 -0.300003,-0.400002 -0.300003,-0.800003v-22.300003c0,-0.299995 0.100006,-0.599998 0.300003,-0.799995z" fill="#FFFFFF"/>
    <path id="svg_32" d="m191.199997,72.400002c0.199997,-0.200005 0.400009,-0.300003 0.699997,-0.300003c0.300003,0 0.5,0.099998 0.700012,0.300003c0.199997,0.199997 0.299988,0.5 0.299988,0.799995v22.300003c0,0.300003 -0.099991,0.599998 -0.299988,0.800003c-0.200012,0.199997 -0.400009,0.299995 -0.700012,0.299995c-0.299988,0 -0.5,-0.099998 -0.699997,-0.299995c-0.199997,-0.200005 -0.300003,-0.400002 -0.300003,-0.800003v-22.300003c0,-0.299995 0.100006,-0.599998 0.300003,-0.799995z" fill="#FFFFFF"/>
    <path id="svg_33" d="m199.600006,72.400002c0.199997,-0.099998 0.400009,-0.200005 0.699997,-0.200005c0.300003,0 0.5,0.100006 0.700012,0.200005c0.199997,0.199997 0.299988,0.400002 0.299988,0.699997v12l12.699997,-12.599998c0.199997,-0.300003 0.5,-0.400002 0.800003,-0.400002c0.300003,0 0.5,0.099998 0.699997,0.200005c0.199997,0.199997 0.300003,0.399994 0.300003,0.599998c0,0.299995 -0.100006,0.5 -0.400009,0.799995l-8.5,8.5l9.600006,12.700005c0.199997,0.299995 0.300003,0.5 0.199997,0.799995c0,0.200005 -0.199997,0.400002 -0.399994,0.600006c-0.199997,0.099998 -0.5,0.199997 -0.699997,0.099998c-0.300003,0 -0.5,-0.200005 -0.700012,-0.400002l-9.399994,-12.400002l-4.100006,4.099998v7.700005c0,0.299995 -0.099991,0.599998 -0.299988,0.799995c-0.200012,0.200005 -0.400009,0.300003 -0.700012,0.300003c-0.299988,0 -0.5,-0.099998 -0.699997,-0.300003c-0.199997,-0.199997 -0.300003,-0.399994 -0.300003,-0.799995v-22.300003c-0.099991,-0.299995 0,-0.5 0.200012,-0.699997z" fill="#FFFFFF"/>
    <path id="svg_34" d="m235.800003,73c0.199997,0.199997 0.300003,0.400002 0.300003,0.599998c0,0.200005 -0.100006,0.400002 -0.300003,0.599998c-0.199997,0.200005 -0.400009,0.300003 -0.699997,0.300003h-11.400009c-0.5,0 -0.800003,0.099998 -1.099991,0.400002c-0.200012,0.299995 -0.300003,0.599998 -0.300003,1v7.199997h11.699997c0.300003,0 0.600006,0.099998 0.800003,0.300003c0.199997,0.199997 0.300003,0.400002 0.300003,0.599998c0,0.199997 -0.100006,0.400002 -0.300003,0.599998c-0.199997,0.200005 -0.400009,0.300003 -0.800003,0.300003h-11.699997v8c0,0.400002 0.099991,0.699997 0.300003,0.900002c0.299988,0.299995 0.599991,0.399994 1.099991,0.399994h11.800003c0.300003,0 0.600006,0.100006 0.800003,0.300003c0.199997,0.199997 0.300003,0.400002 0.300003,0.599998c0,0.200005 -0.100006,0.400002 -0.300003,0.599998c-0.199997,0.200005 -0.5,0.300003 -0.800003,0.300003h-12.100006c-1,0 -1.799988,-0.300003 -2.299988,-0.900002c-0.5,-0.599998 -0.700012,-1.299995 -0.700012,-2.099998v-17.199997c0,-0.800003 0.200012,-1.600006 0.700012,-2.100006c0.599991,-0.599998 1.299988,-0.899994 2.299988,-0.899994h11.600006c0.300003,-0.100006 0.600006,0 0.800003,0.199997z" fill="#FFFFFF"/>
    <path id="svg_35" d="m253.899994,74.099998c1,0.900002 1.599991,2.200005 1.899994,3.800003c0.100006,0.400002 0,0.699997 -0.199997,1c-0.199997,0.199997 -0.399994,0.400002 -0.699997,0.400002c-0.300003,0 -0.5,-0.100006 -0.800003,-0.200005c-0.199997,-0.199997 -0.399994,-0.400002 -0.399994,-0.799995c-0.300003,-1.5 -0.800003,-2.600006 -1.800003,-3.300003c-0.900009,-0.699997 -2.199997,-1 -3.900009,-1c-1.799988,0 -3.199997,0.300003 -4.199997,1c-1.099991,0.699997 -1.599991,1.699997 -1.599991,3c0,1.300003 0.399994,2.300003 1.299988,3c0.900009,0.800003 2.5,1.400002 4.800003,1.800003c3.100006,0.599998 5.199997,1.5 6.5,2.599998c1.199997,1.099998 1.799988,2.699997 1.799988,4.699997c0,2 -0.799988,3.599998 -2.499985,4.700005c-1.5,1.099998 -3.5,1.699997 -5.800003,1.699997c-2.599991,0 -4.699997,-0.5 -6.099991,-1.599998c-1.5,-1.200005 -2.400009,-3 -2.600006,-5.400002c0,-0.300003 0,-0.599998 0.300003,-0.800003c0.199997,-0.199997 0.399994,-0.299995 0.599991,-0.299995c0.300003,0 0.5,0.099998 0.700012,0.199997c0.199997,0.200005 0.299988,0.5 0.399994,0.800003c0.100006,1.900002 0.800003,3.299995 2,4.099998c1,0.800003 2.600006,1.199997 4.699997,1.199997c1.5,0 2.900009,-0.299995 4.100006,-1c1.5,-0.799995 2.199997,-2 2.199997,-3.399994c0,-1.600006 -0.399994,-2.700005 -1.199997,-3.5c-0.900009,-0.900002 -2.800003,-1.600006 -5.5,-2.200005c-2.600006,-0.599998 -4.5,-1.400002 -5.699997,-2.199997c-1.400009,-1.099998 -2.100006,-2.5 -2.100006,-4.400002c0,-1.800003 0.699997,-3.300003 2.100006,-4.300003c1.399994,-1 3.399994,-1.5 5.899994,-1.5c2.500015,0 4.500015,0.600006 5.800003,1.900002z" fill="#FFFFFF"/>
   </g>
   <g id="svg_36">
    <path id="svg_37" d="m54.400002,134.899994h-0.800003v-2.899994h-8.399998v2.899994h-0.799999v-3.699997h0.799999c0.799999,-1.300003 1.5,-3.099991 2,-5.099998c0.599998,-2.099998 0.899998,-4 1,-5.599998h4.899998v10.800003h1.200001v3.599991l0.100002,0zm-2,-3.699997v-10h-3.400002c-0.099998,1.700005 -0.5,3.400002 -1,5.300003c-0.5,1.899994 -1.099998,3.5 -1.799999,4.699997h6.200001l0,0z" fill="#FFFFFF"/>
    <path id="svg_38" d="m64.199997,131.899994h-0.799995v-10.799995h-4.200001c-0.200001,1.800003 -0.400002,3.5 -0.700001,5.099998c-0.200001,1.600006 -0.400002,2.699997 -0.599998,3.400009c-0.200001,0.699997 -0.300003,1.199997 -0.5,1.5s-0.400002,0.599991 -0.700001,0.699997s-0.600002,0.199997 -1,0.199997c-0.400002,0 -0.700001,-0.100006 -0.900002,-0.199997v-0.699997c0.299999,0.099991 0.600002,0.199997 0.900002,0.199997c0.5,0 0.799999,-0.300003 1.099998,-0.900009c0.299999,-0.599991 0.5,-1.799988 0.799999,-3.699997c0.300003,-1.899994 0.600002,-4 0.900002,-6.399994h5.699997v11.599991l0,0z" fill="#FFFFFF"/>
    <path id="svg_39" d="m70.099998,126.900002l-3.099998,4.999992h-1l3.199997,-5.199997c-0.799995,-0.199997 -1.399994,-0.5 -1.899994,-1c-0.400002,-0.5 -0.700005,-1.199997 -0.700005,-2c0,-2.199997 1.400002,-3.299995 4.099998,-3.299995h2.700005v11.499992h-0.800003v-4.999992h-2.5l0,0zm2.800003,-5.700005h-1.900002c-1.199997,0 -2,0.200005 -2.5,0.600006c-0.5,0.399994 -0.800003,1 -0.800003,1.899994c0,0.800003 0.300003,1.5 0.800003,1.900002c0.5,0.400002 1.300003,0.599998 2.300003,0.599998h2.199997v-5l-0.099998,0z" fill="#FFFFFF"/>
    <path id="svg_40" d="m84.099998,131.899994h-0.799995v-10.799995h-3.700005v-0.799995h8.300003v0.799995h-3.700005v10.799995l-0.099998,0z" fill="#FFFFFF"/>
    <path id="svg_41" d="m89.599998,120.400002h0.800003v7.5c0,0.499992 0,1.400002 -0.099998,2.700005h0l6.799995,-10.200005h0.800003v11.499992h-0.800003v-7.499992c0,-0.800003 0,-1.800003 0.099998,-2.800003h-0.099998l-6.799995,10.200005h-0.800003v-11.400002l0.099998,0z" fill="#FFFFFF"/>
    <path id="svg_42" d="m108.199997,131.899994h-0.899994l-3.400002,-5.400002l-3.5,5.400002h-0.900002l3.900002,-6.000008l-3.5,-5.5h0.900002l3.099998,4.900002l3.199997,-4.900002h0.900002l-3.599998,5.5l3.799995,6.000008z" fill="#FFFFFF"/>
    <path id="svg_43" d="m121.099998,131.899994h-0.900002l-3.399994,-5.400002l-3.5,5.400002h-0.900002l3.900002,-6.000008l-3.5,-5.5h0.899994l3.100006,4.900002l3.199997,-4.900002h0.900002l-3.599998,5.5l3.799995,6.000008z" fill="#FFFFFF"/>
    <path id="svg_44" d="m125.699997,131.899994h-0.799995v-10.799995h-3.700005v-0.799995h8.300003v0.799995h-3.699997v10.799995l-0.100006,0z" fill="#FFFFFF"/>
    <path id="svg_45" d="m140.899994,126.199997c0,1.800003 -0.5,3.300003 -1.400009,4.300003c-0.899994,1.100006 -2.199997,1.600006 -3.799988,1.600006c-1.600006,0 -2.900009,-0.5 -3.800003,-1.600006c-0.900009,-1.100006 -1.400009,-2.5 -1.400009,-4.400002c0,-1.799995 0.5,-3.299995 1.400009,-4.299995s2.199997,-1.600006 3.800003,-1.600006c1.599991,0 2.899994,0.5 3.799988,1.600006c0.900009,1.099998 1.400009,2.5 1.400009,4.399994zm-9.5,0c0,1.600006 0.399994,2.900009 1.099991,3.800003c0.700012,0.899994 1.800003,1.300003 3.200012,1.300003c1.399994,0 2.399994,-0.400009 3.199997,-1.300003s1.099991,-2.199997 1.099991,-3.800003c0,-1.699997 -0.399994,-2.899994 -1.099991,-3.799995c-0.699997,-0.900002 -1.800003,-1.300003 -3.199997,-1.300003c-1.400009,0 -2.400009,0.400002 -3.200012,1.300003c-0.699982,0.900002 -1.099991,2.099998 -1.099991,3.799995z" fill="#FFFFFF"/>
    <path id="svg_46" d="m155.399994,131.899994h-0.799988v-10.799995h-4.200012c-0.199997,1.800003 -0.399994,3.5 -0.699997,5.099998c-0.199997,1.600006 -0.399994,2.699997 -0.599991,3.400009c-0.200012,0.699997 -0.300003,1.199997 -0.5,1.5s-0.400009,0.599991 -0.700012,0.699997s-0.599991,0.199997 -1,0.199997c-0.399994,0 -0.699997,-0.100006 -0.899994,-0.199997v-0.699997c0.300003,0.099991 0.600006,0.199997 0.899994,0.199997c0.5,0 0.800003,-0.300003 1.100006,-0.900009c0.300003,-0.599991 0.5,-1.799988 0.800003,-3.699997c0.300003,-1.899994 0.599991,-4 0.899994,-6.399994h5.699997v11.599991l0,0z" fill="#FFFFFF"/>
    <path id="svg_47" d="m172.600006,126.199997c0,1.800003 -0.399994,3.300003 -1.300003,4.300003c-0.899994,1.100006 -2.099991,1.600006 -3.599991,1.600006c-1.5,0 -2.699997,-0.5 -3.600006,-1.600006c-0.899994,-1 -1.300003,-2.5 -1.300003,-4.199997h-3.299988v5.699997h-0.800003v-11.5h0.800003v5.099998h3.299988c0.100006,-1.599998 0.600006,-2.900002 1.5,-3.900002c0.900009,-0.899994 2,-1.399994 3.5,-1.399994c1.5,0 2.700012,0.5 3.600006,1.599998s1.199997,2.400002 1.199997,4.299995zm-9,0c0,1.600006 0.300003,2.900009 1,3.800003c0.699997,0.899994 1.699997,1.399994 3,1.399994s2.300003,-0.399994 3,-1.299988c0.699997,-0.900009 1,-2.200005 1,-3.800003c0,-1.700005 -0.300003,-2.900002 -1,-3.800003s-1.699997,-1.300003 -3,-1.300003c-1.300003,0 -2.300003,0.400002 -3,1.300003s-1,2 -1,3.699997z" fill="#FFFFFF"/>
    <path id="svg_48" d="m178.399994,125.5c1.300003,0 2.300003,0.300003 3,0.800003s1,1.299995 1,2.399994c0,1.100006 -0.299988,1.900009 -1,2.400009c-0.699997,0.599991 -1.599991,0.899994 -2.799988,0.899994h-3.300003v-11.5h6.5v0.800003h-5.699997v4.299995h2.299988l0,-0.099998zm-2.299988,5.699997h2.399994c1,0 1.800003,-0.199997 2.300003,-0.599991c0.5,-0.400009 0.699997,-1.100006 0.699997,-2c0,-0.900009 -0.300003,-1.500008 -0.800003,-1.900009c-0.5,-0.399994 -1.300003,-0.599998 -2.399994,-0.599998h-2.199997v5.099998l0,0z" fill="#FFFFFF"/>
    <path id="svg_49" d="m184.899994,120.400002h0.800003v7.5c0,0.499992 0,1.400002 -0.099991,2.700005h0l6.799988,-10.200005h0.800003v11.499992h-0.800003v-7.499992c0,-0.800003 0,-1.800003 0.100006,-2.800003h-0.100006l-6.799988,10.200005h-0.800003v-11.400002l0.099991,0z" fill="#FFFFFF"/>
    <path id="svg_50" d="m199.5,131.899994h-0.800003v-10.799995h-3.699997v-0.799995h8.300003v0.799995h-3.699997v10.799995l-0.100006,0z" fill="#FFFFFF"/>
    <path id="svg_51" d="m205.800003,125.5h2.300003c1.299988,0 2.299988,0.300003 3,0.800003c0.699997,0.5 1,1.299995 1,2.399994c0,1.100006 -0.300003,1.900009 -1,2.5c-0.700012,0.600006 -1.600006,0.900009 -2.800003,0.900009h-3.300003v-11.500008h0.800003v4.900002l0,0zm0,5.699997h2.399994c1,0 1.800003,-0.199997 2.300003,-0.599991c0.5,-0.400009 0.699997,-1.100006 0.699997,-2c0,-0.900009 -0.300003,-1.500008 -0.800003,-1.900009c-0.5,-0.399994 -1.299988,-0.599998 -2.399994,-0.599998h-2.199997v5.099998l0,0z" fill="#FFFFFF"/>
    <path id="svg_52" d="m219.5,131.899994h-0.800003v-11.499992h6.300003v0.699997h-5.5v10.799995l0,0z" fill="#FFFFFF"/>
    <path id="svg_53" d="m236.5,126.199997c0,1.800003 -0.5,3.300003 -1.399994,4.300003c-0.900009,1.100006 -2.200012,1.600006 -3.800003,1.600006c-1.600006,0 -2.900009,-0.5 -3.800003,-1.600006c-0.899994,-1.100006 -1.399994,-2.5 -1.399994,-4.400002c0,-1.799995 0.5,-3.299995 1.399994,-4.299995s2.199997,-1.600006 3.800003,-1.600006c1.599991,0 2.899994,0.5 3.800003,1.600006s1.399994,2.5 1.399994,4.399994zm-9.399994,0c0,1.600006 0.400009,2.900009 1.100006,3.800003s1.800003,1.300003 3.199997,1.300003c1.399994,0 2.399994,-0.400009 3.199997,-1.300003s1.100006,-2.199997 1.100006,-3.800003c0,-1.699997 -0.400009,-2.899994 -1.100006,-3.799995c-0.699997,-0.900002 -1.800003,-1.300003 -3.199997,-1.300003c-1.399994,0 -2.399994,0.400002 -3.199997,1.300003s-1.100006,2.099998 -1.100006,3.799995z" fill="#FFFFFF"/>
    <path id="svg_54" d="m246.100006,123.699997c0,1.100006 -0.400009,2 -1.100006,2.600006c-0.800003,0.599998 -1.800003,0.899994 -3.199997,0.899994h-1.800003v4.800003h-0.800003v-11.5h2.800003c2.699997,-0.099998 4.100006,1 4.100006,3.199997zm-6.100006,2.800003h1.600006c1.299988,0 2.199997,-0.199997 2.799988,-0.599998s0.900009,-1.099998 0.900009,-2.099998c0,-0.900002 -0.300003,-1.5 -0.800003,-2c-0.5,-0.400002 -1.399994,-0.600006 -2.5,-0.600006h-2v5.300003l0,0z" fill="#FFFFFF"/>
    <path id="svg_55" d="m248.600006,120.400002h0.799988v7.5c0,0.499992 0,1.400002 -0.099991,2.700005h0l6.800003,-10.200005h0.799988v11.499992h-0.799988v-7.499992c0,-0.800003 0,-1.800003 0.100006,-2.800003h-0.100006l-6.800003,10.200005h-0.800003v-11.400002l0.100006,0z" fill="#FFFFFF"/>
   </g>
   <g id="svg_56">
    <line id="svg_57" y2="115" x2="261" y1="115" x1="42" fill="#FFFFFF"/>
    <rect id="svg_58" height="1" width="219" fill="#FFFFFF" y="114" x="42"/>
   </g>
  </g>
 </g>
</svg>